<svg width="200" height="190" xmlns="http://www.w3.org/2000/svg">
  <style>
    .main-color {
      fill: #EEEEEE;
      fill-rule: evenodd;
    }
    #pano {
      -webkit-clip-path: polygon(0% 0%, 0% 100%, 100% 100%, 100% 80%, 100% 35%, 99.37% 34.95%, 98.75% 34.81%, 98.12% 34.57%, 97.51% 34.24%, 96.89% 33.81%, 96.29% 33.29%, 95.7% 32.68%, 95.12% 31.97%, 94.55% 31.19%, 94% 30.31%, 93.46% 29.35%, 92.95% 28.32%, 92.45% 27.2%, 91.97% 26.01%, 91.51% 24.75%, 91.08% 23.42%, 90.67% 22.03%, 90.28999999999999% 20.57%, 89.94% 19.06%, 89.61% 17.5%, 89.31% 15.89%, 89.03999999999999% 14.24%, 88.8% 12.54%, 88.59% 10.82%, 88.41% 9.06%, 88.26% 7.28%, 88.15% 5.48%, 88.07% 3.66%, 88.02% 1.83%, 88% 0%);
              clip-path: polygon(0% 0%, 0% 100%, 100% 100%, 100% 80%, 100% 35%, 99.37% 34.95%, 98.75% 34.81%, 98.12% 34.57%, 97.51% 34.24%, 96.89% 33.81%, 96.29% 33.29%, 95.7% 32.68%, 95.12% 31.97%, 94.55% 31.19%, 94% 30.31%, 93.46% 29.35%, 92.95% 28.32%, 92.45% 27.2%, 91.97% 26.01%, 91.51% 24.75%, 91.08% 23.42%, 90.67% 22.03%, 90.28999999999999% 20.57%, 89.94% 19.06%, 89.61% 17.5%, 89.31% 15.89%, 89.03999999999999% 14.24%, 88.8% 12.54%, 88.59% 10.82%, 88.41% 9.06%, 88.26% 7.28%, 88.15% 5.48%, 88.07% 3.66%, 88.02% 1.83%, 88% 0%);
    }
    #brand {
      -webkit-animation: brand-frames 8s infinite linear;
              animation: brand-frames 8s infinite linear;
    }
    #left-curve {
      -webkit-animation: left-curve-frames 8s infinite linear;
              animation: left-curve-frames 8s infinite linear;
    }
    #right-curve {
      -webkit-animation: right-curve-frames 8s infinite linear;
              animation: right-curve-frames 8s infinite linear;
    }
    @-webkit-keyframes brand-frames {
      0% { opacity: 0; }
      25%, 65% { opacity: 1; }
      85%, 100% { opacity: 0; }
    }
    @keyframes brand-frames {
      0% { opacity: 0; }
      25%, 65% { opacity: 1; }
      85%, 100% { opacity: 0; }
    }
    @-webkit-keyframes left-curve-frames {
      0%, 20% { opacity: 0; -webkit-clip-path: polygon(0% 0%, 100% 0%, 100% 0%, 0% 0%); clip-path: polygon(0% 0%, 100% 0%, 100% 0%, 0% 0%); }
      35%, 50% { opacity: 1; -webkit-clip-path: polygon(0% 0%, 100% 0%, 100% 100%, 0% 100%); clip-path: polygon(0% 0%, 100% 0%, 100% 100%, 0% 100%); }
      65%, 100% { opacity: 0; -webkit-clip-path: polygon(0% 0%, 100% 0%, 100% 0%, 0% 0%); clip-path: polygon(0% 0%, 100% 0%, 100% 0%, 0% 0%); }
    }
    @keyframes left-curve-frames {
      0%, 20% { opacity: 0; -webkit-clip-path: polygon(0% 0%, 100% 0%, 100% 0%, 0% 0%); clip-path: polygon(0% 0%, 100% 0%, 100% 0%, 0% 0%); }
      35%, 50% { opacity: 1; -webkit-clip-path: polygon(0% 0%, 100% 0%, 100% 100%, 0% 100%); clip-path: polygon(0% 0%, 100% 0%, 100% 100%, 0% 100%); }
      65%, 100% { opacity: 0; -webkit-clip-path: polygon(0% 0%, 100% 0%, 100% 0%, 0% 0%); clip-path: polygon(0% 0%, 100% 0%, 100% 0%, 0% 0%); }
    }
    @-webkit-keyframes right-curve-frames {
      0%, 20% { opacity: 0; -webkit-clip-path: polygon(0% 100%, 100% 100%, 100% 100%, 0% 100%); clip-path: polygon(0% 100%, 100% 100%, 100% 100%, 0% 100%); }
      35%, 50% { opacity: 1; -webkit-clip-path: polygon(0% 0%, 100% 0%, 100% 100%, 0% 100%); clip-path: polygon(0% 0%, 100% 0%, 100% 100%, 0% 100%); }
      65%, 100% { opacity: 0; -webkit-clip-path: polygon(0% 100%, 100% 100%, 100% 100%, 0% 100%); clip-path: polygon(0% 100%, 100% 100%, 100% 100%, 0% 100%); }
    }
    @keyframes right-curve-frames {
      0%, 20% { opacity: 0; -webkit-clip-path: polygon(0% 100%, 100% 100%, 100% 100%, 0% 100%); clip-path: polygon(0% 100%, 100% 100%, 100% 100%, 0% 100%); }
      35%, 50% { opacity: 1; -webkit-clip-path: polygon(0% 0%, 100% 0%, 100% 100%, 0% 100%); clip-path: polygon(0% 0%, 100% 0%, 100% 100%, 0% 100%); }
      65%, 100% { opacity: 0; -webkit-clip-path: polygon(0% 100%, 100% 100%, 100% 100%, 0% 100%); clip-path: polygon(0% 100%, 100% 100%, 100% 100%, 0% 100%); }
    }
  </style>
  <path id="left-curve" class="main-color" d="m117.886495,180.406998c-27.604,8.701 -68.778,-0.132 -92.719,-33.546c-22.651,-31.628 -22.402,-75.544 3.24,-107.153c25.988,-32.039 68.115,-38.816 97.936,-27.014c-25.966,-5.327 -50.012,-0.991 -71.295,15.016c-21.461,16.145 -32.95,38.13 -33.99,64.834c-1.021,26.207 8.449,48.723 28,66.387c19.494,17.623 42.741,24.29 68.828,21.476z" />
  <path id="right-curve" class="main-color" d="m191.139495,118.328998c-11.591,33.195 -33.832,53.595 -68.681,57.87c-32.095,3.937 -57.463,-12.013 -69.408,-28.11c18.191,16.421 39.521,23.552 63.69,20.388c24.195,-3.172 42.857,-15.659 55.56,-36.529c23.804,-39.091 7.798,-95.442 -40.872,-112.608c12.4,2.471 23.574,7.727 33.094,16.01c23.811,20.708 32.961,46.727 27.473,77.892" />
  <g id="brand" class="main-color">
    <g id="pano">
      <path d="m43.038495,113.198998c-5.549,0 -7.715,-2.671 -6.502,-8.009c0.565,-2.49 0.942,-4.151 1.131,-4.984l7.609,0c-0.087,0.385 -0.31,1.353 -0.656,2.894c-0.429,2.019 0.26,3.024 2.068,3.024c3.56,0 6.023,0 7.388,0c1.333,0 3.797,0 7.387,0c1.815,-0.029 2.973,-1.122 3.466,-3.292c0.154,-0.682 0.264,-1.172 0.331,-1.47c0.068,-0.293 0.125,-0.546 0.174,-0.757c0.444,-1.955 -0.358,-2.935 -2.407,-2.935c-2.253,0 -4.02,0 -5.293,0c-0.595,0 -1.172,0 -1.736,0l-8.321,0l1.604,-7.074l8.321,0c2.403,0 4.909,0 7.52,0c1.461,-0.03 2.384,-0.904 2.776,-2.626c0.109,-0.475 0.207,-0.903 0.293,-1.292c0.113,-0.501 0.215,-0.945 0.302,-1.334c0.351,-1.54 -0.094,-2.313 -1.341,-2.313c-3.944,0 -6.555,0 -7.832,0c-1.333,0 -3.665,0 -6.984,0c-1.842,0 -3.006,1.07 -3.488,3.202c-0.109,0.475 -0.218,0.953 -0.323,1.428l-7.609,0c0.181,-0.803 0.467,-2.064 0.858,-3.786c1.198,-5.277 4.705,-7.918 10.521,-7.918c3.439,0 6.317,0 8.631,0c2.313,0 5.221,0 8.721,0c5.718,0.026 7.997,2.596 6.841,7.695c-0.29,1.277 -0.517,2.283 -0.686,3.025c-0.641,2.818 -2.472,5.135 -5.489,6.943c2.494,1.66 3.35,4.245 2.555,7.74c-0.182,0.803 -0.448,1.975 -0.799,3.516c-1.259,5.549 -4.75,8.321 -10.473,8.321c-3.74,0 -6.78,0 -9.124,0c-2.375,0.002 -5.52,0.002 -9.434,0.002z" />
      <path d="m82.419495,85.344998c1.416,-6.23 5.605,-9.346 12.578,-9.346c1.571,0 4.005,0 7.297,0c3.383,0 5.786,0 7.21,0c6.999,0 9.828,2.953 8.491,8.856c-0.298,1.308 -0.539,2.377 -0.727,3.206l-7.606,0c0.072,-0.328 0.2,-0.893 0.385,-1.695c0.497,-2.192 -0.385,-3.289 -2.638,-3.289c-2.256,0 -4.493,0 -6.72,0c-2.343,0 -4.6,0 -6.762,0c-2.257,0 -3.636,1.111 -4.141,3.334c-0.169,0.742 -0.294,1.292 -0.372,1.65l-0.66,2.889c2.02,-0.915 4.159,-1.378 6.412,-1.378l4.049,0c2.344,0 5.131,0 8.367,0c6.223,0.033 8.672,2.953 7.35,8.77c-0.275,1.213 -0.505,2.223 -0.686,3.021c-0.174,0.772 -0.373,1.646 -0.596,2.626c-1.394,6.141 -5.085,9.211 -11.078,9.211c-3.47,0 -6.378,0 -8.721,0c-2.374,0 -5.398,0 -9.079,0c-5.782,0 -7.997,-2.995 -6.634,-8.988c0.26,-1.153 0.475,-2.106 0.645,-2.849l3.021,-13.301c0.189,-0.829 0.392,-1.737 0.615,-2.717zm5.873,20.779c3.413,0 5.801,0 7.165,0c1.333,0 3.62,0 6.853,0c2.173,-0.029 3.548,-1.303 4.121,-3.823c0.071,-0.327 0.143,-0.641 0.211,-0.938c0.082,-0.354 0.154,-0.678 0.222,-0.975c0.565,-2.494 -0.177,-3.741 -2.226,-3.741c-3.354,0 -5.696,0 -7.03,0c-2.433,0 -4.807,0 -7.119,0c-1.813,0.03 -3.003,0.817 -3.56,2.358c-0.053,0.237 -0.105,0.463 -0.151,0.67c-0.128,0.562 -0.256,1.127 -0.384,1.688c-0.072,0.328 -0.17,0.758 -0.294,1.293c-0.524,2.312 0.206,3.468 2.192,3.468z" />
      <path d="m121.803495,94.555998c0.564,-2.49 1.134,-4.983 1.699,-7.474c1.71,-7.417 6.099,-11.124 13.158,-11.124c2.403,0 4.776,0 7.119,0c2.373,0 4.731,0 7.075,0c7.089,0 9.79,3.707 8.11,11.124c-0.565,2.49 -1.134,4.983 -1.699,7.474c-0.558,2.464 -1.119,4.942 -1.684,7.433c-1.729,7.474 -6.122,11.211 -13.182,11.211c-2.373,0 -4.73,0 -7.074,0c-2.403,0 -4.776,0 -7.119,0c-7.09,0 -9.787,-3.737 -8.088,-11.211c0.57,-2.521 1.136,-4.999 1.685,-7.433zm6.691,4.63c-1.048,4.626 0.429,6.938 4.434,6.938c1.333,0 2.667,0 4.005,0c1.303,0 2.625,0 3.959,0c4.004,0 6.535,-2.313 7.583,-6.938c0.351,-1.545 0.7,-3.085 1.051,-4.63c0.351,-1.541 0.7,-3.085 1.051,-4.63c1.044,-4.596 -0.437,-6.894 -4.441,-6.894c-1.363,0 -2.686,0 -3.959,0c-1.367,0 -2.716,0 -4.05,0c-3.985,0.03 -6.494,2.328 -7.53,6.894c-0.351,1.545 -0.7,3.089 -1.051,4.63c-0.352,1.545 -0.702,3.085 -1.052,4.63z" />
    </g>
    <g id="dot">
      <path d="m168.964495,76.018998c0,5.955 -4.834,10.788 -10.789,10.788c-5.964,0 -10.793,-4.833 -10.793,-10.788c0,-5.964 4.829,-10.793 10.793,-10.793c5.955,0 10.789,4.829 10.789,10.793z" />
    </g>
    <g id="logo">
      <path d="m98.290495,133.235998l-5.029,-12.973l1.861,0l3.371,9.425c0.271,0.753 0.497,1.462 0.682,2.124c0.2,-0.708 0.434,-1.416 0.697,-2.124l3.507,-9.425l1.752,0l-5.082,12.973l-1.759,0z" />
      <path d="m106.705495,133.235998l0,-12.973l9.38,0l0,1.529l-7.666,0l0,3.974l7.181,0l0,1.522l-7.181,0l0,4.418l7.968,0l0,1.529l-9.682,0l0,0.001z" />
      <path d="m118.786495,133.235998l0,-12.973l5.752,0c1.157,0 2.038,0.116 2.641,0.346c0.6,0.234 1.082,0.648 1.443,1.236c0.357,0.591 0.539,1.242 0.539,1.955c0,0.923 -0.298,1.698 -0.894,2.328c-0.599,0.633 -1.518,1.031 -2.761,1.205c0.452,0.219 0.799,0.434 1.032,0.645c0.505,0.463 0.979,1.035 1.428,1.729l2.256,3.529l-2.158,0l-1.718,-2.7c-0.501,-0.776 -0.915,-1.375 -1.239,-1.786c-0.324,-0.414 -0.614,-0.704 -0.874,-0.866c-0.256,-0.166 -0.516,-0.282 -0.783,-0.347c-0.192,-0.041 -0.513,-0.064 -0.953,-0.064l-1.993,0l0,5.764l-1.718,0l0,-0.001zm1.718,-7.247l3.691,0c0.784,0 1.397,-0.083 1.843,-0.245c0.44,-0.162 0.775,-0.422 1.006,-0.779c0.229,-0.354 0.346,-0.742 0.346,-1.164c0,-0.614 -0.222,-1.115 -0.666,-1.511c-0.448,-0.396 -1.149,-0.596 -2.113,-0.596l-4.106,0l0,4.295l-0.001,0z" />
      <path d="m131.850495,133.235998l0,-12.973l4.896,0c0.859,0 1.519,0.041 1.971,0.12c0.641,0.109 1.172,0.309 1.604,0.606c0.43,0.301 0.776,0.716 1.04,1.254c0.26,0.535 0.392,1.127 0.392,1.771c0,1.104 -0.351,2.037 -1.051,2.799c-0.704,0.764 -1.971,1.148 -3.809,1.148l-3.326,0l0,5.273l-1.717,0l0,0.002zm1.718,-6.807l3.356,0c1.107,0 1.895,-0.207 2.361,-0.617c0.468,-0.415 0.697,-0.995 0.697,-1.744c0,-0.543 -0.136,-1.01 -0.41,-1.395c-0.275,-0.388 -0.637,-0.645 -1.085,-0.765c-0.286,-0.079 -0.821,-0.116 -1.602,-0.116l-3.318,0l0,4.637l0.001,0z" />
      <path d="m144.232495,133.235998l0,-12.973l1.718,0l0,12.973l-1.718,0z" />
      <path d="m147.657495,133.235998l5.018,-6.762l-4.423,-6.211l2.042,0l2.354,3.326c0.489,0.689 0.84,1.22 1.047,1.593c0.286,-0.471 0.629,-0.964 1.024,-1.477l2.611,-3.442l1.868,0l-4.559,6.113l4.913,6.859l-2.125,0l-3.266,-4.629c-0.186,-0.264 -0.373,-0.555 -0.565,-0.867c-0.29,0.472 -0.497,0.795 -0.622,0.973l-3.254,4.523l-2.063,0l0,0.001z" />
    </g>
  </g>
</svg>
